<svg xmlns="http://www.w3.org/2000/svg" width="430" height="129" fill="none"><g stroke="#fff" opacity=".25"><path d="M429.5 40c0 2.521-1.694 5.087-5.181 7.659-3.473 2.562-8.627 5.054-15.312 7.44-13.365 4.77-32.732 9.073-56.698 12.69C304.385 75.025 238.161 79.5 165 79.5c-73.16 0-139.385-4.476-187.309-11.71-23.966-3.618-43.333-7.922-56.698-12.691-6.685-2.386-11.84-4.878-15.312-7.44C-97.805 45.087-99.5 42.521-99.5 40s1.695-5.087 5.18-7.659c3.474-2.562 8.627-5.054 15.313-7.44 13.365-4.77 32.732-9.073 56.698-12.69C25.615 4.975 91.84.5 165 .5s139.385 4.476 187.309 11.71c23.966 3.618 43.333 7.921 56.698 12.691 6.685 2.386 11.839 4.878 15.312 7.44 3.487 2.572 5.181 5.138 5.181 7.659Z"/><path d="M429.5 52c0 2.521-1.694 5.087-5.181 7.659-3.473 2.562-8.627 5.054-15.312 7.44-13.365 4.77-32.732 9.073-56.698 12.69C304.385 87.025 238.161 91.5 165 91.5c-73.16 0-139.385-4.476-187.309-11.71-23.966-3.618-43.333-7.922-56.698-12.691-6.685-2.386-11.84-4.878-15.312-7.44C-97.805 57.087-99.5 54.521-99.5 52s1.695-5.087 5.18-7.659c3.474-2.562 8.627-5.054 15.313-7.44 13.365-4.77 32.732-9.073 56.698-12.69C25.615 16.975 91.84 12.5 165 12.5s139.385 4.476 187.309 11.71c23.966 3.618 43.333 7.922 56.698 12.691 6.685 2.386 11.839 4.878 15.312 7.44 3.487 2.572 5.181 5.138 5.181 7.659Z"/><path d="M429.5 65c0 2.521-1.694 5.088-5.181 7.659-3.473 2.562-8.627 5.054-15.312 7.44-13.365 4.77-32.732 9.073-56.698 12.69C304.385 100.025 238.161 104.5 165 104.5c-73.16 0-139.385-4.476-187.309-11.71-23.966-3.618-43.333-7.922-56.698-12.691-6.685-2.386-11.84-4.878-15.312-7.44C-97.805 70.087-99.5 67.521-99.5 65s1.695-5.087 5.18-7.659c3.474-2.562 8.627-5.054 15.313-7.44 13.365-4.77 32.732-9.073 56.698-12.69C25.615 29.975 91.84 25.5 165 25.5s139.385 4.476 187.309 11.71c23.966 3.618 43.333 7.922 56.698 12.691 6.685 2.386 11.839 4.878 15.312 7.44 3.487 2.572 5.181 5.138 5.181 7.659Z"/><path d="M429.5 77c0 2.521-1.694 5.088-5.181 7.659-3.473 2.562-8.627 5.054-15.312 7.44-13.365 4.77-32.732 9.073-56.698 12.691C304.385 112.024 238.161 116.5 165 116.5c-73.16 0-139.385-4.476-187.309-11.71-23.966-3.618-43.333-7.922-56.698-12.691-6.685-2.386-11.84-4.878-15.312-7.44C-97.805 82.087-99.5 79.521-99.5 77s1.695-5.088 5.18-7.659c3.474-2.562 8.627-5.054 15.313-7.44 13.365-4.77 32.732-9.073 56.698-12.69C25.615 41.975 91.84 37.5 165 37.5s139.385 4.476 187.309 11.71c23.966 3.618 43.333 7.922 56.698 12.691 6.685 2.386 11.839 4.878 15.312 7.44 3.487 2.572 5.181 5.138 5.181 7.659Z"/><path d="M429.5 89c0 2.521-1.694 5.088-5.181 7.659-3.473 2.562-8.627 5.054-15.312 7.44-13.365 4.769-32.732 9.073-56.698 12.691C304.385 124.024 238.161 128.5 165 128.5c-73.16 0-139.385-4.476-187.309-11.71-23.966-3.618-43.333-7.922-56.698-12.691-6.685-2.386-11.84-4.878-15.312-7.44C-97.805 94.087-99.5 91.521-99.5 89s1.695-5.088 5.18-7.659c3.474-2.562 8.627-5.054 15.313-7.44 13.365-4.77 32.732-9.073 56.698-12.69C25.615 53.975 91.84 49.5 165 49.5s139.385 4.476 187.309 11.71c23.966 3.618 43.333 7.922 56.698 12.691 6.685 2.386 11.839 4.878 15.312 7.44 3.487 2.572 5.181 5.138 5.181 7.659Z"/></g></svg>