<svg xmlns="http://www.w3.org/2000/svg" width="26" height="23" fill="none"><path fill="#fff" fill-rule="evenodd" d="M13.084.23a.75.75 0 0 0-.736.751v14.266a.75.75 0 0 0 1.501 0V.981a.748.748 0 0 0-.764-.75ZM24.44 4.505a.753.753 0 0 0-.284.065l-6.44 2.875a.752.752 0 0 0 0 1.37l6.44 2.883a.75.75 0 0 0 .612-1.369L19.861 8.13l4.907-2.19a.752.752 0 0 0 .093-1.32.752.752 0 0 0-.42-.115ZM1.036 9.735a.75.75 0 0 1 .335-.072v.001a.75.75 0 0 1 .712.561 14.052 14.052 0 0 0 13.602 10.503.75.75 0 0 1 0 1.501c-7.082 0-13.274-4.782-15.054-11.628a.75.75 0 0 1 .405-.866Z" clip-rule="evenodd"/></svg>